<svg xmlns="http://www.w3.org/2000/svg" xmlns:xlink="http://www.w3.org/1999/xlink" width="500" zoomAndPan="magnify" viewBox="0 0 375 374.999991" height="500" preserveAspectRatio="xMidYMid meet" version="1.0"><defs><clipPath id="b25d6a9f8e"><path d="M 1 45.234375 L 374 45.234375 L 374 329.484375 L 1 329.484375 Z M 1 45.234375 " clip-rule="nonzero"/></clipPath></defs><path fill="#ffffff" d="M 273.667969 196.476562 C 251.675781 196.476562 233.726562 178.523438 233.726562 156.535156 C 233.726562 134.542969 251.675781 116.589844 273.667969 116.589844 C 295.65625 116.589844 313.609375 134.542969 313.609375 156.535156 C 313.609375 178.523438 295.65625 196.476562 273.667969 196.476562 Z M 273.667969 125.566406 C 256.613281 125.566406 242.699219 139.480469 242.699219 156.535156 C 242.699219 173.585938 256.613281 187.5 273.667969 187.5 C 290.722656 187.5 304.632812 173.585938 304.632812 156.535156 C 304.632812 139.480469 290.722656 125.566406 273.667969 125.566406 Z M 273.667969 125.566406 " fill-opacity="1" fill-rule="nonzero"/><path fill="#ffffff" d="M 346.820312 253.472656 L 316.75 199.617188 C 319.890625 198.71875 323.035156 197.375 325.277344 194.230469 C 327.96875 190.191406 327.96875 185.257812 327.523438 180.769531 C 327.523438 178.074219 327.074219 175.832031 327.523438 174.035156 C 327.96875 172.691406 329.765625 170.445312 331.113281 168.652344 C 333.804688 165.0625 337.394531 161.46875 337.394531 156.085938 C 337.394531 150.699219 334.253906 147.109375 331.113281 143.519531 C 329.765625 141.722656 327.96875 139.929688 327.523438 138.132812 C 327.074219 136.339844 327.074219 134.09375 327.523438 131.402344 C 327.96875 126.914062 327.96875 121.976562 325.277344 117.9375 C 322.136719 113.898438 317.648438 112.550781 313.160156 111.65625 C 310.917969 111.207031 308.222656 110.308594 306.878906 109.410156 C 305.53125 108.511719 304.183594 106.269531 302.839844 104.027344 C 300.59375 100.433594 297.902344 95.949219 292.964844 94.601562 C 288.476562 93.253906 283.988281 95.050781 279.949219 96.394531 C 277.707031 97.292969 275.011719 98.191406 273.21875 98.191406 C 271.421875 98.191406 269.179688 97.292969 266.488281 96.394531 C 262.449219 94.601562 257.960938 92.804688 253.472656 94.601562 C 248.535156 95.949219 245.84375 100.433594 243.597656 104.027344 C 242.253906 106.269531 240.90625 108.066406 239.558594 109.410156 C 238.214844 110.308594 235.519531 111.207031 233.277344 111.65625 C 228.789062 112.550781 224.300781 113.898438 221.160156 117.9375 C 218.464844 121.976562 218.464844 126.914062 218.914062 131.402344 C 218.914062 134.09375 219.363281 136.339844 218.914062 138.132812 C 218.464844 139.480469 216.671875 141.722656 215.324219 143.519531 C 212.632812 147.109375 209.042969 150.699219 209.042969 156.085938 C 209.042969 161.023438 212.183594 165.0625 215.324219 168.652344 C 216.671875 170.445312 218.464844 172.242188 218.914062 174.035156 C 219.363281 175.832031 219.363281 178.074219 218.914062 180.769531 C 218.464844 185.257812 218.464844 190.191406 221.160156 194.230469 C 223.851562 197.820312 227.890625 199.167969 231.929688 200.066406 L 202.308594 253.472656 C 201.414062 254.816406 201.414062 256.613281 202.308594 257.960938 C 203.207031 259.304688 204.554688 260.203125 206.347656 260.203125 L 225.648438 258.855469 L 234.621094 275.910156 C 235.519531 277.257812 236.867188 278.15625 238.660156 278.15625 C 240.457031 278.15625 241.804688 277.257812 242.699219 275.910156 L 275.011719 218.914062 L 306.429688 275.460938 C 307.328125 276.808594 308.671875 277.707031 310.46875 277.707031 C 312.261719 277.707031 313.609375 276.808594 314.507812 275.460938 L 323.484375 258.410156 L 342.78125 259.753906 C 344.574219 259.753906 345.921875 258.855469 346.820312 257.511719 C 347.71875 256.613281 347.71875 254.816406 346.820312 253.472656 Z M 228.339844 181.21875 C 228.339844 178.074219 228.789062 174.484375 227.890625 171.34375 C 226.992188 168.203125 224.75 165.507812 222.503906 163.265625 C 220.710938 161.023438 218.464844 158.328125 218.464844 156.535156 C 218.464844 154.738281 220.710938 152.046875 222.503906 149.800781 C 224.75 147.109375 226.992188 144.863281 227.890625 141.722656 C 228.789062 138.582031 228.789062 134.992188 228.339844 131.851562 C 228.339844 128.707031 227.890625 125.566406 228.789062 124.222656 C 229.6875 122.875 232.828125 121.976562 235.519531 121.527344 C 238.660156 120.628906 242.253906 119.734375 244.945312 117.9375 C 247.636719 116.144531 249.433594 113 251.226562 110.308594 C 253.023438 107.617188 254.371094 104.921875 256.164062 104.472656 C 256.613281 104.472656 256.613281 104.472656 257.0625 104.472656 C 258.855469 104.472656 261.101562 105.371094 263.34375 106.269531 C 266.488281 107.617188 269.628906 108.960938 273.21875 108.960938 C 276.808594 108.960938 279.949219 107.617188 283.089844 106.269531 C 285.785156 105.371094 288.476562 104.027344 290.273438 104.472656 C 292.066406 104.921875 293.414062 107.617188 295.207031 110.308594 C 297.003906 113 298.800781 116.144531 301.492188 117.9375 C 304.183594 119.734375 307.773438 120.628906 310.917969 121.527344 C 314.058594 122.425781 316.75 122.875 317.648438 124.222656 C 318.546875 125.566406 318.546875 128.707031 318.097656 131.851562 C 318.097656 134.992188 317.648438 138.582031 318.546875 141.722656 C 319.445312 144.863281 321.6875 147.558594 323.929688 149.800781 C 325.726562 152.046875 327.96875 154.738281 327.96875 156.535156 C 327.96875 158.328125 325.726562 161.023438 323.929688 163.265625 C 321.6875 165.957031 319.445312 168.203125 318.546875 171.34375 C 317.648438 174.484375 317.648438 178.074219 318.097656 181.21875 C 318.097656 184.359375 318.546875 187.5 317.648438 188.847656 C 316.75 190.191406 313.609375 191.089844 310.917969 191.539062 C 307.773438 192.4375 304.183594 193.335938 301.492188 195.128906 C 298.800781 196.925781 297.003906 200.066406 295.207031 202.757812 C 293.414062 205.453125 292.066406 208.144531 290.273438 208.59375 C 288.925781 209.042969 285.785156 207.695312 283.089844 206.796875 C 280.847656 205.898438 278.15625 205.003906 275.910156 204.554688 C 275.011719 204.554688 274.117188 204.105469 273.21875 204.105469 C 269.628906 204.105469 266.488281 205.453125 263.34375 206.796875 C 260.652344 207.695312 257.960938 209.042969 256.164062 208.59375 C 254.371094 208.144531 253.023438 205.453125 251.226562 202.757812 C 249.433594 200.066406 247.636719 196.925781 244.945312 195.128906 C 242.253906 193.335938 238.660156 192.4375 235.519531 191.539062 C 232.378906 190.640625 229.6875 190.191406 228.789062 188.847656 C 227.890625 187.5 228.339844 184.359375 228.339844 181.21875 Z M 239.558594 264.242188 L 232.828125 252.125 C 231.929688 250.777344 230.136719 249.882812 228.789062 249.882812 L 214.875 250.332031 L 240.90625 203.207031 C 241.804688 204.105469 243.148438 205.898438 244.046875 207.695312 C 246.292969 211.285156 248.984375 215.773438 253.921875 217.121094 C 255.265625 217.570312 256.164062 217.570312 257.511719 217.570312 C 260.652344 217.570312 264.242188 216.222656 266.933594 214.875 Z M 321.238281 249.433594 C 319.445312 249.433594 317.648438 250.332031 317.199219 251.675781 L 310.46875 263.792969 L 284.4375 216.671875 C 287.128906 217.570312 290.273438 218.015625 293.414062 217.121094 C 298.351562 215.773438 301.042969 211.285156 303.289062 207.695312 C 304.632812 205.453125 305.980469 203.65625 307.328125 202.308594 C 307.773438 201.859375 308.222656 201.859375 308.671875 201.859375 L 335.601562 250.332031 Z M 321.238281 249.433594 " fill-opacity="1" fill-rule="nonzero"/><g clip-path="url(#b25d6a9f8e)"><path fill="#ffffff" d="M 354.449219 329.765625 L 20.550781 329.765625 C 9.78125 329.765625 1.253906 321.238281 1.253906 310.46875 L 1.253906 64.53125 C 1.253906 53.761719 9.78125 45.234375 20.550781 45.234375 L 354.449219 45.234375 C 365.21875 45.234375 373.746094 53.761719 373.746094 64.53125 L 373.746094 310.46875 C 373.746094 320.789062 364.769531 329.765625 354.449219 329.765625 Z M 20.550781 54.210938 C 14.71875 54.210938 10.230469 58.699219 10.230469 64.53125 L 10.230469 310.46875 C 10.230469 316.300781 14.71875 320.789062 20.550781 320.789062 L 354.449219 320.789062 C 360.28125 320.789062 364.769531 316.300781 364.769531 310.46875 L 364.769531 64.53125 C 364.769531 58.699219 360.28125 54.210938 354.449219 54.210938 Z M 20.550781 54.210938 " fill-opacity="1" fill-rule="nonzero"/></g><path fill="#ffffff" d="M 338.742188 310.917969 L 37.605469 310.917969 C 28.179688 310.917969 20.550781 303.289062 20.550781 293.863281 L 20.550781 81.136719 C 20.550781 71.710938 28.179688 64.082031 37.605469 64.082031 L 338.742188 64.082031 C 348.164062 64.082031 355.796875 71.710938 355.796875 81.136719 L 355.796875 293.863281 C 355.796875 303.289062 348.164062 310.917969 338.742188 310.917969 Z M 37.605469 68.570312 C 30.875 68.570312 25.039062 74.40625 25.039062 81.136719 L 25.039062 293.863281 C 25.039062 300.59375 30.875 306.429688 37.605469 306.429688 L 338.742188 306.429688 C 345.472656 306.429688 351.308594 300.59375 351.308594 293.863281 L 351.308594 81.136719 C 351.308594 74.40625 345.472656 68.570312 338.742188 68.570312 Z M 37.605469 68.570312 " fill-opacity="1" fill-rule="nonzero"/><path fill="#ffffff" d="M 198.71875 112.105469 L 53.3125 112.105469 C 50.621094 112.105469 48.824219 110.308594 48.824219 107.617188 C 48.824219 104.921875 50.621094 103.128906 53.3125 103.128906 L 198.269531 103.128906 C 200.964844 103.128906 202.757812 104.921875 202.757812 107.617188 C 202.757812 110.308594 200.964844 112.105469 198.71875 112.105469 Z M 198.71875 112.105469 " fill-opacity="1" fill-rule="nonzero"/><path fill="#ffffff" d="M 182.113281 224.300781 L 53.3125 224.300781 C 50.621094 224.300781 48.824219 222.503906 48.824219 219.8125 C 48.824219 217.121094 50.621094 215.324219 53.3125 215.324219 L 182.113281 215.324219 C 184.808594 215.324219 186.601562 217.121094 186.601562 219.8125 C 186.601562 222.503906 184.808594 224.300781 182.113281 224.300781 Z M 182.113281 224.300781 " fill-opacity="1" fill-rule="nonzero"/><path fill="#ffffff" d="M 182.113281 172.691406 L 53.3125 172.691406 C 50.621094 172.691406 48.824219 170.894531 48.824219 168.203125 C 48.824219 165.507812 50.621094 163.714844 53.3125 163.714844 L 182.113281 163.714844 C 184.808594 163.714844 186.601562 165.507812 186.601562 168.203125 C 186.601562 170.894531 184.808594 172.691406 182.113281 172.691406 Z M 182.113281 172.691406 " fill-opacity="1" fill-rule="nonzero"/><path fill="#ffffff" d="M 121.527344 258.410156 L 53.3125 258.410156 C 50.621094 258.410156 48.824219 256.613281 48.824219 253.921875 C 48.824219 251.226562 50.621094 249.433594 53.3125 249.433594 L 121.527344 249.433594 C 124.222656 249.433594 126.015625 251.226562 126.015625 253.921875 C 126.015625 256.613281 124.222656 258.410156 121.527344 258.410156 Z M 121.527344 258.410156 " fill-opacity="1" fill-rule="nonzero"/></svg>