<svg xmlns="http://www.w3.org/2000/svg" xmlns:xlink="http://www.w3.org/1999/xlink" width="500" zoomAndPan="magnify" viewBox="0 0 375 374.999991" height="500" preserveAspectRatio="xMidYMid meet" version="1.0"><path fill="#000000" d="M 187.441406 0.0390625 C 84.136719 0.0390625 -0.046875 84.230469 -0.046875 187.527344 C -0.046875 290.824219 84.144531 375.015625 187.441406 375.015625 C 290.738281 375.015625 374.929688 290.824219 374.929688 187.527344 C 374.929688 84.230469 290.738281 0.0390625 187.441406 0.0390625 Z M 187.441406 0.0390625 " fill-opacity="1" fill-rule="nonzero"/><path fill="#ffffff" d="M 353.675781 187.523438 C 353.675781 279.332031 279.246094 353.765625 187.433594 353.765625 C 95.617188 353.765625 21.191406 279.335938 21.191406 187.523438 C 21.191406 95.707031 95.617188 21.28125 187.433594 21.28125 C 279.246094 21.28125 353.675781 95.707031 353.675781 187.523438 Z M 353.675781 187.523438 " fill-opacity="1" fill-rule="nonzero"/><path fill="#000000" d="M 239.851562 304.875 C 250.25 301.632812 261.605469 297.234375 265.425781 294.960938 C 267.996094 293.4375 268.355469 292.921875 267.46875 292.0625 C 261.03125 285.824219 215.746094 246.148438 215.34375 246.394531 C 215.054688 246.574219 214.3125 249.402344 213.703125 252.679688 C 212.496094 259.144531 211.359375 260.625 207.597656 260.625 C 204.5 260.621094 202.460938 258.886719 199.492188 253.738281 C 198.199219 251.492188 196.105469 248.332031 194.84375 246.714844 C 193.578125 245.09375 191.027344 241.054688 189.171875 237.730469 C 187.316406 234.410156 184.050781 228.9375 181.921875 225.566406 C 177.035156 217.847656 171.351562 208.433594 169.199219 204.503906 C 168.289062 202.839844 166.042969 199.453125 164.207031 196.972656 C 162.371094 194.492188 160.03125 190.816406 159.007812 188.804688 C 157.984375 186.796875 155.046875 182.027344 152.480469 178.210938 C 149.917969 174.394531 146.835938 169.328125 145.632812 166.957031 C 144.429688 164.585938 142.222656 160.726562 140.726562 158.382812 C 137.289062 152.996094 133.28125 144.992188 132.589844 142.117188 C 132.167969 140.367188 132.523438 139.472656 134.308594 137.792969 C 136.71875 135.527344 136.875 135.527344 144.539062 137.835938 C 147.132812 138.617188 149.417969 139.085938 149.625 138.882812 C 149.996094 138.511719 132.457031 70.546875 131.832031 69.921875 C 131.371094 69.460938 110.839844 86.707031 110.839844 87.550781 C 110.839844 87.933594 109.054688 90.027344 106.871094 92.199219 C 104.6875 94.371094 101.585938 98.234375 99.980469 100.78125 C 97.453125 104.792969 96.945312 106.476562 96.160156 113.4375 C 93.675781 135.527344 99.503906 168.179688 110.5625 194.132812 C 116.511719 208.105469 120.089844 215.109375 124.316406 221.074219 C 126.230469 223.769531 128.800781 228 130.03125 230.46875 C 136.652344 243.738281 157.519531 267.929688 172.078125 279.222656 C 182.128906 287.011719 203.449219 300.945312 208.378906 302.941406 C 222.789062 308.773438 226.589844 309.007812 239.851562 304.875 Z M 276.605469 279.835938 C 279.730469 272.15625 279.816406 271.707031 278.445312 270.410156 C 277.285156 269.316406 240.699219 237.460938 235.648438 233.148438 C 234.46875 232.140625 233.28125 232.511719 225.941406 236.195312 C 218.902344 239.730469 217.761719 240.5625 218.714844 241.480469 C 222.195312 244.835938 272.890625 288.332031 273.089844 288.132812 C 273.21875 288.003906 274.804688 284.269531 276.605469 279.835938 Z M 164.15625 132.996094 C 167.617188 130.359375 170.441406 128.15625 170.429688 128.097656 C 169.488281 123.722656 155.808594 70.210938 155.566406 69.96875 C 155.097656 69.5 137.632812 67.050781 137.277344 67.402344 C 137.054688 67.625 141.851562 86.160156 155.011719 135.972656 C 155.945312 139.503906 155.367188 139.691406 164.15625 132.996094 Z M 164.15625 132.996094 " fill-opacity="1" fill-rule="nonzero"/></svg>