<svg xmlns="http://www.w3.org/2000/svg" xmlns:xlink="http://www.w3.org/1999/xlink" width="500" zoomAndPan="magnify" viewBox="0 0 375 374.999991" height="500" preserveAspectRatio="xMidYMid meet" version="1.0"><path fill="#000000" d="M 191.394531 86.039062 C 136.6875 86.039062 92.207031 130.519531 92.207031 185.226562 C 92.207031 204.382812 97.726562 222.890625 107.953125 238.960938 L 110.390625 242.695312 L 100.8125 277.109375 L 137.175781 268.507812 L 140.585938 270.617188 C 155.84375 279.707031 173.539062 284.578125 191.394531 284.578125 C 246.105469 284.578125 290.585938 240.097656 290.585938 185.390625 C 290.585938 130.683594 246.105469 86.039062 191.394531 86.039062 Z M 247.890625 227.921875 C 246.914062 232.792969 236.527344 238.960938 229.871094 240.746094 C 213.3125 245.128906 189.933594 232.46875 166.882812 212.335938 C 143.667969 192.207031 128.085938 170.777344 130.03125 153.734375 C 130.84375 146.914062 135.714844 135.714844 140.257812 134.253906 C 144.804688 132.792969 148.050781 134.253906 152.757812 135.714844 C 155.03125 138.3125 157.953125 141.394531 161.203125 145.128906 C 165.585938 150 168.507812 154.382812 170.292969 157.46875 C 171.753906 160.066406 171.265625 163.3125 168.992188 165.257812 L 161.039062 172.402344 C 159.578125 173.703125 159.089844 175.8125 159.902344 177.597656 C 162.335938 182.792969 168.019531 193.507812 176.625 200.972656 C 185.066406 208.441406 196.589844 212.664062 202.109375 214.285156 C 203.894531 214.933594 206.007812 214.125 206.980469 212.5 L 212.988281 203.734375 C 214.609375 201.296875 217.855469 200.324219 220.617188 201.460938 C 223.863281 202.921875 228.734375 205.195312 234.089844 208.765625 C 238.148438 211.527344 241.722656 213.960938 244.480469 215.910156 C 246.914062 220.292969 248.863281 223.375 247.890625 227.921875 Z M 247.890625 227.921875 " fill-opacity="1" fill-rule="nonzero"/><path fill="#000000" d="M 187.5 0 C 83.929688 0 0 83.929688 0 187.5 C 0 291.070312 83.929688 375 187.5 375 C 291.070312 375 375 291.070312 375 187.5 C 374.835938 83.929688 290.910156 0 187.5 0 Z M 191.394531 303.894531 C 171.265625 303.894531 151.625 298.863281 134.089844 289.125 L 73.214844 303.570312 L 89.285156 245.617188 C 78.410156 227.273438 72.726562 206.492188 72.726562 185.066406 C 72.726562 119.644531 125.972656 66.394531 191.394531 66.394531 C 256.816406 66.394531 310.066406 119.804688 310.066406 185.226562 C 310.066406 250.648438 256.816406 303.894531 191.394531 303.894531 Z M 191.394531 303.894531 " fill-opacity="1" fill-rule="nonzero"/></svg>